<svg xmlns="http://www.w3.org/2000/svg" width="296" height="80" fill="none"><path fill="#fff" fill-rule="evenodd" d="M6.46 7.6c0 .3-.1.6-.2.9-.1.3-.3.6-.5.8-.2.2-.5.4-.8.6-.3.1-.7.2-1.1.2-.5 0-.91-.1-1.31-.3-.4-.2-.8-.4-1.1-.7a2.44 2.44 0 0 1-.5-.76l-.1-.24c-.1-.4-.2-.8-.2-1.3 0-.9.2-1.6.5-2.4.3-.7.7-1.4 1.3-1.9.2-.2.5-.5.8-.7.3-.2.6-.4.9-.5.2-.06.34-.16.48-.26L4.86.9l.19-.08a.53.53 0 0 0 .2-.12l1.41 2-.2.1c-.18.07-.39.16-.6.3-.3.1-.6.3-.9.5-.3.2-.5.5-.7.8-.2.3-.3.6-.3 1 .7 0 1.2.2 1.7.6.6.3.8.9.8 1.6Zm7.93 0c0 .3-.1.6-.2.9-.1.3-.3.6-.5.8-.2.2-.5.4-.8.6-.3.1-.71.2-1.11.2-.5 0-.9-.1-1.3-.3-.4-.2-.8-.4-1.1-.7-.2-.3-.41-.6-.61-1-.1-.4-.2-.8-.2-1.3 0-.9.2-1.6.5-2.4.3-.7.7-1.4 1.3-1.9.2-.2.5-.5.8-.7.3-.2.6-.4.91-.5.19-.06.34-.16.47-.26l.23-.14.2-.08a.53.53 0 0 0 .2-.12l1.4 2-.2.1c-.17.07-.38.16-.6.3-.3.1-.6.3-.9.5-.3.2-.5.5-.7.8-.2.3-.3.6-.3 1 .7 0 1.2.2 1.7.6.5.3.8.9.8 1.6Zm275.7 18.5.3-.3c.29.12.64.36.97.6.24.16.46.32.63.4-3.2 3.6-6.82 7-9.93 7-1.9 0-3.11-1-3.31-2.5-1.9 1.5-3.81 2.5-5.32 2.5-2.3 0-3.51-1.4-3.31-3.3-2.2 1.9-4.42 3.3-6.42 3.3-3.11 0-4.21-2.6-2.61-5.4l4.92-8.6c1.7-2.8-.9-3.8-6.72 3.5l-5.82 10.1h-3.82l1.4-2.4c-1.9 1.7-3.9 2.8-5.71 2.8-1.9 0-3.11-1-3.31-2.5-1.9 1.5-3.81 2.5-5.32 2.5-2.2 0-3.31-1.3-3.31-3-2 1.8-4.11 3-6.02 3-3.1 0-4.21-2.6-2.6-5.4l4-7c.5-.8.3-1.6-.2-2.2l-.5-.6-.47.63c-2.6 3.48-3.94 5.28-5.55 7.17l.09.2c.03.08.05.14.11.2-4.21 4.9-8.12 7.6-12.03 8.8l-2.91 5c-2.71 4.7-8.33 3.9-8.33.3 0-2.9 3.2-4.9 8.32-6.5l1-1.7c-1.1.7-2.5 1.2-4.1 1.2-5.42 0-5.92-5.1-3.22-9.7l1.1-2a8.47 8.47 0 0 1-4.8-7.5c0-2.6 1.2-5.2 3.9-7.1l1.21 2.2a6.1 6.1 0 0 0-2.4 4.8c0 2.1 1.2 4.2 3.4 5.4l5.92-10.2c1.7-2.9 4.22-4.4 6.32-4.4 11.94 0 5.42 18.1-8.12 18.1-.8 0-1.5-.1-2.21-.2l-1.1 1.9c-2.31 3.9-1.81 6.5.8 6.5 3 0 5.31-2.6 7.32-6.1l.4-.7h3.72l-4.82 8.2c3-1.3 5.72-3.6 8.83-7.2l-.3-.3c2.23-2.58 4.22-5.39 5.83-7.67l.59-.83-.3-.4c-1.3-1.7-1.2-3.9 1-5.8l2 2.2c-.7.7-.7 1.5-.2 2.2l2.11 2.6c1.2 1.5 1.8 2.8.5 5.1l-3.8 6.6c-.91 1.5-.4 2.1.4 2.1 1.7 0 4.4-2.5 7.12-5.7l.2-.2 3.71-6.3c1.6-2.8 4.51-4.4 6.52-4.4 2.5 0 4.11 2.2 4.01 3.8h1.91l-6.12 10.7c-.9 1.5-.4 2.1.4 2.1 1.7 0 4.42-2.5 7.13-5.7l.3-.3c.2 0 .3.1.4.2l6.12-10.5h3.8l-1.4 2.5c1.91-1.9 3.72-2.8 5.32-2.8 2.1 0 3.61 2.1 2 5l-5.5 9.6c-.91 1.5-.41 2.1.4 2.1 1.7 0 4.4-2.5 7.12-5.7l.3-.3s.1.1.2.1l3.7-6.4c1.61-2.8 4.52-4.4 6.53-4.4 1.6 0 2.8.9 3.51 2l5.62-9.6h3.81l-12.84 22.2c-.9 1.5-.4 2.1.4 2.1 1.7 0 4.42-2.5 7.13-5.7ZM215.63 8.8c-1 0-2.3.9-3.4 2.8l-5.53 9.5h.8c9.94 0 14.15-12.3 8.13-12.3ZM202 40.4c0 1 1.3 1.2 2.1-.2l1.71-3c-2.9 1.1-3.81 2.2-3.81 3.2Zm35.81-8.7c1.51 0 3.82-1.7 6.13-5.3l3-5.2c1.91-3.4-2.2-4.3-4.2-.8l-5.33 9.2c-.9 1.5-.4 2.1.4 2.1Zm36.72 0c1.6 0 3.92-1.7 6.22-5.5l2.91-5c1.91-3.4-2.2-4.3-4.21-.8l-5.32 9.2c-.9 1.5-.4 2.1.4 2.1ZM34.95 5.5c7.53 0 7.03 9.6-.7 12.2 7.33 4.9 2 18.5-9.33 18.5-13.34 0-15.75-14.6-7.72-19.7l1.5 1.9c-3.71 2.4-4.41 7.8-1.8 11.4.5-.59.87-1.17 1.27-1.82l.23-.38L28.63 9.9c1.71-2.9 4.22-4.4 6.32-4.4ZM19.3 32c1.5.8 3.21 1.3 5.52 1.3 9.23 0 12.74-13.1 3.81-15l-1-.1-6.42 11.1c-.6 1-1.2 1.9-1.9 2.7Zm12.75-21.3L28.94 16c3.9-.1 6.01-.9 7.52-3.7 1.9-3.6-1.6-6.4-4.41-1.6Zm37.52 23.4c-2.51 0-3.71-1.9-3.11-4.1-2.71 2.3-5.82 4.1-9.03 4.3-3.21 0-5.22-2-5.12-4.6-2.7 2.6-6.12 4.6-9.43 4.6-4.51 0-6.62-3.8-4.21-7.8l4.01-6.8c1.6-2.8 4.01-4.4 7.12-4.4 3.11 0 5.02 2.6 3.01 6.1l-.5.9c-2.9 4.9-7.52 5.4-9.93 4.4l-.4.7c-1.7 3-.3 4.5 2 4.5 2.71 0 6.22-2.5 8.93-5.7l.3-.3c.05.05.1.08.15.1.05.03.1.05.16.1l3.8-6.5c1.61-2.8 4.02-4.4 7.13-4.4 3.11 0 5.02 2.6 3.01 6.1l-.5.9h-3.11l.5-.9c2.3-3.9-1.6-4.6-3.81-.8l-3.91 6.8c-1.71 3-.3 4.5 2 4.5 2.71 0 6.22-2.5 8.93-5.7l.3-.3c.2.1.4.2.6.4l3.82-6.6c1.6-2.8 4.51-4.4 6.52-4.4 2.5 0 4.11 2.2 4.01 3.8h2.2L78.9 29.7c-.9 1.5-.4 2.1.4 2.1 1.7 0 4.41-2.5 7.12-5.7l.3-.3c.05.05.1.08.15.1.05.03.1.05.15.1l6.02-10.4h3.82l-7.43 12.9-.03.05c-.5.8-1.35 2.16-.47 2.55.7.3 2.91-1.2 5.82-3.8l6.72-11.8h3.81l-8.12 14.2c-.9 1.5-.4 2.1.4 2.1 1.7 0 4.41-2.5 7.12-5.7l.1-.2-.1-.1c2.82-3.3 5.64-7.23 7.44-9.73l.99-1.37 2.8 1.5c-1.47 2.94-1.92 6.18-2.33 9.07a29.2 29.2 0 0 1-.97 4.93c1.5-1 3.2-2.5 4.61-4.1l.3-.3h.1l3.72-6.3c1.6-2.8 4-4.4 7.12-4.4 3.1 0 5.01 2.6 3 6.1l-.5.9c-2.9 4.9-7.52 5.4-9.93 4.4l-.4.7c-1.7 3-.3 4.5 2.01 4.5 2.7 0 6.22-2.5 8.93-5.7l.3-.3c.5.2 1.1.8 1.4 1.3-3.1 3.6-7.42 7-11.73 7-3.11 0-5.02-1.8-5.12-4.3-2.4 2.1-5.12 3.8-7.93 4.2h-.1c-.4.1-.7.1-1.1.1a4.19 4.19 0 0 1-4.21-3.1l2.4-1.2s.5 1.4 1.81 1.4c2.4 0 2.85-3.12 3.32-6.36.24-1.64.49-3.32 1-4.64l-1.4 1.83a80.2 80.2 0 0 1-3.92 4.97c0 .05.02.08.05.1.02.03.05.05.05.1-3.21 3.6-6.83 7-9.94 7-2.4 0-3.6-1.6-3.2-3.6-1.81 1.7-4.12 3.6-6.23 3.6-1.9 0-2.8-1.4-2.4-3.4-2.21 2-4.42 3.4-6.42 3.4-1.91 0-3.11-1-3.32-2.5-1.9 1.5-3.8 2.5-5.31 2.5Zm58.89-12.9c2.3-3.9-1.6-4.6-3.81-.8l-2.41 4.2c1.4.5 3.91.6 5.72-2.5l.5-.9Zm-52.87-.7-5.32 9.2c-.9 1.5-.4 2 .4 2.1 1.5 0 3.81-1.7 6.12-5.3l3.01-5.2c1.9-3.4-2.2-4.3-4.21-.8Zm-25.79.7c2.31-3.9-1.6-4.6-3.81-.8l-2.4 4.2c1.4.5 3.9.6 5.71-2.5l.5-.9Zm125.21 12.9c4.31 0 8.63-3.4 11.74-7-.3-.5-.9-1.1-1.4-1.3l-.3.3c-2.72 3.2-6.23 5.7-8.94 5.7-2.3 0-3.7-1.5-2-4.5l.4-.7c2.4 1 7.02.5 9.93-4.4l.5-.9c2-3.5.1-6.1-3-6.1-3.12 0-5.53 1.6-7.13 4.4l-3.71 6.3s-.1 0-.1-.1l-.3.3c-2.71 3.2-5.42 5.7-7.13 5.7-.8 0-1.3-.6-.4-2.1l5.52-9.6c1.6-2.9.1-5-2-5-1.61 0-3.42.9-5.32 2.9l6.12-10.5h-3.92L152.84 26c-.05-.05-.13-.1-.2-.15l-.2-.15-.3.3c-2.71 3.2-5.42 5.7-7.13 5.7-.8 0-1.3-.6-.4-2.1l8.13-14.2h3.1l1.11-1.8h-3.1l3.6-6.2h-3.8l-3.62 6.2h-3.41l-1.1 1.8h3.5l-7.62 13.2c-1.6 2.8-.5 5.4 2.6 5.4 1.92 0 3.92-1.2 6.03-3l-1.5 2.6h3.8l5.82-10c5.82-7.3 8.43-6.4 6.83-3.6l-4.92 8.6c-1.6 2.8-.5 5.4 2.61 5.4 2.3 0 4.92-1.8 7.32-4.2 0 2.5 1.91 4.3 5.02 4.3Zm3.11-13.7c2.2-3.8 6.12-3.1 3.81.8l-.5.9c-1.8 3.1-4.31 3-5.72 2.5l2.41-4.2Zm-14.85 41.4-.3.3c-2.7 3.2-5.42 5.7-7.12 5.7-.8 0-1.3-.6-.4-2.1l5.52-9.6c1.6-2.9.1-5-2.01-5-1.6 0-3.41.9-5.32 2.8l1.4-2.5h-3.8L145.1 62l-.25-.15-.25-.15-.3.3a7.82 7.82 0 0 1-5.72 2.8l3.61-6.2c2.31-4 .2-7.7-3.4-7.7-2.92 0-5.22 1.2-7.43 5l-1.9 3.2-1.61 2.8a.51.51 0 0 0-.15-.1l-.03-.01a.42.42 0 0 1-.12-.09l-.3.3c-3.12 3.6-5.82 5.9-8.83 7.2l10.43-17.8h-3.81l-6.72 11.7c-2.91 2.7-5.22 4.2-5.92 3.9-.89-.4-.04-1.74.47-2.55l.03-.05 7.42-12.9h-3.81L110.4 62a.52.52 0 0 0-.15-.1.51.51 0 0 1-.15-.1l-.3.3c-2.71 3.2-5.42 5.7-7.13 5.7-.8 0-1.3-.6-.4-2.1l5.52-9.6c1.6-2.9.1-5-2-5-1.61 0-3.42.9-5.32 2.8l1.4-2.5h-3.81l-6.12 10.5c-.1-.1-.2-.2-.4-.2l-.3.3c-2.71 3.2-5.42 5.7-7.13 5.7-.8 0-1.3-.6-.4-2.1l6.12-10.7h-2.2c.1-1.6-1.5-3.8-4.02-3.8-2 0-4.91 1.6-6.52 4.4l-3.91 6.8c-.3-.2-.6-.4-.8-.5l-.3.3c-2.71 3.2-6.12 5.7-9.84 5.7-2.6 0-4.21-2.6-1.9-6.5l1.1-1.9c.7.1 1.4.2 2.2.2 4.02 0 8.64-2.1 11.65-7.3 1.1-1.9 1.5-3.6 1.5-5.1 0-3.4-2.2-5.7-5.02-5.7-2.1 0-4.61 1.5-6.32 4.4l-5.92 10.2a6.22 6.22 0 0 1-3.4-5.4c0-1.8.8-3.5 2.4-4.8l-1.2-2.2c-2.71 1.9-3.92 4.5-3.92 7.1 0 3 1.71 5.9 4.82 7.5l-1.1 2c-2.71 4.6-1.1 9.7 4.31 9.7 4.21 0 7.42-1.9 10.03-4.4-.8 2.4.4 4.4 3.11 4.4 1.5 0 3.41-1 5.32-2.5.2 1.5 1.4 2.5 3.31 2.5 1.8 0 3.81-1.1 5.72-2.8l-1.4 2.4h3.8l5.83-10.1c5.82-7.3 8.42-6.3 6.72-3.5l-4.92 8.6c-1.6 2.8-.5 5.4 2.61 5.4 2 0 4.32-1.4 6.52-3.4-.5 2.1.5 3.4 2.41 3.4 1.8 0 3.91-1.5 5.62-3.1l-2.1 3.6c-5.13 1.5-8.44 3.6-8.44 6.5 0 3.6 5.62 4.4 8.33-.3l2.91-5c3.21-1 6.32-3 9.63-6.2-.5 5.3 6.52 6.5 10.84 1.1h.8c1.4 0 3.31-.5 5.02-1.5l-2.51 4.4h3.81l5.82-10.1c5.82-7.3 8.43-6.3 6.72-3.5l-4.91 8.6c-1.61 2.8-.5 5.4 2.6 5.4 3.11 0 6.73-3.4 9.94-7-.1-.3-.8-.9-1.3-1.1Zm-94.7-14.2c1.1-1.9 2.4-2.8 3.4-2.8 1.41 0 2.11.9 2.11 2.3 0 3.5-4.31 9.9-10.23 9.9h-.8l5.51-9.4ZM82 62.4c-2.31 3.6-4.62 5.3-6.12 5.3-.8 0-1.3-.6-.4-2.1l5.31-9.2c2.01-3.5 6.12-2.6 4.22.8L82 62.4Zm28.9 13.8c-.81 1.4-2.11 1.2-2.11.2s.9-2.1 3.8-3.2l-1.7 3ZM136.58 62h-.2c-1.2 0-2.21 1-2.21 2.3 0 .5.1.9.4 1.3v.1c-1.8 3.1-6.12 2.5-3.91-1.5l2.9-5 1.81-3.1c2.71-4.5 6.32-2.7 4.01 1.2l-2.8 4.7Zm113.47-.2c.5.1 1.2.7 1.4 1.3-2.81 3.3-6.72 6.4-10.53 7.1h-.1c-.4.1-.7.1-1.1.1-3.52 0-4.22-3.1-4.22-3.1l2.4-1.2s.5 1.4 1.81 1.4c2.4 0 2.85-3.12 3.32-6.36.24-1.64.49-3.32 1-4.64-.42.53-.86 1.12-1.34 1.77a79.92 79.92 0 0 1-4.08 5.13c-3.21 3.6-6.83 7-9.94 7-3.1 0-3.7-1.7-3.7-4.9v-3l-4.32 7.5h-3.81l2.1-3.7c-2.7 2.3-5.71 4-8.82 4-3.12 0-5.12-1.9-5.12-4.4-2.51 2.5-5.12 4.4-7.53 4.4-2.4 0-3.6-1.6-3.2-3.6-1.81 1.7-4.12 3.6-6.23 3.6-1.6 0-2.5-1-2.5-2.5-1.81 1.3-3.72 2.1-5.62 2.4h-.1c-.4.1-.7.1-1.1.1a4.18 4.18 0 0 1-4.2-3 90.88 90.88 0 0 1-2.23 2.7l-.3-.23a4.39 4.39 0 0 1-1.1-1.07c3.5-4 12.24-15.6 13.84-17.8l2.81 1.5c-1.47 2.94-1.93 6.18-2.34 9.07a29.2 29.2 0 0 1-.97 4.93l1-.83h.01c.46-.38.95-.78 1.4-1.17l7.42-12.7h3.81l-7.42 12.9-.03.05c-.5.8-1.36 2.16-.47 2.55.7.3 2.9-1.2 5.82-3.8l6.72-11.8h3.81l-8.12 14.2c-.9 1.5-.4 2.1.4 2.1 1.7 0 4.41-2.5 7.12-5.7l.3-.3s.1.1.2.1l3.71-6.4c1.6-2.8 4.02-4.4 7.13-4.4 3.1 0 5.01 2.6 3 6.1l-.5.9h-3.1l.5-.9c2.3-3.9-1.6-4.6-3.82-.8l-3.9 6.8c-1.71 3-.3 4.5 2 4.5 2.7 0 6.22-2.5 8.93-5.7l.3-.3c.2.1.5.3.7.5L232 43.4h3.8l-5.4 9.4c3.9-3.6 9.62-1.6 6.11 4.5l-1 1.8c-1.8 3.1-4.62 4.8-7.33 4.5v1.6c0 1.8.8 2.6 1.6 2.6 1.71 0 4.42-2.5 7.13-5.7l.3-.3c2.82-3.3 5.64-7.23 7.44-9.73l.99-1.37 2.8 1.5c-1.47 2.94-1.92 6.18-2.33 9.07a29.2 29.2 0 0 1-.97 4.93c1.5-1 3.2-2.5 4.61-4.1l.3-.3ZM174.7 67l2.22-1.1s.5 1.4 1.8 1.4c2.4 0 2.85-3.12 3.32-6.36.24-1.64.49-3.32 1-4.64-.98 1.35-5.31 6.95-8.34 10.7Zm52.58-8.8-1.1 1.9c.9 2.5 4.21 1.1 5.31-.9l1.81-3.1c1.4-2.3-1.6-4-6.02 2.1Zm24.08 7.5c-1.2 0-2.2 1-2.2 2.2 0 1.2.9 2.2 2.2 2.2 1.2 0 2.2-.9 2.2-2.2 0-1.2-1-2.2-2.2-2.2Zm4.01-1.5h-3.81l11.94-20.7h3.81l-11.94 20.7Zm25.18 1.4c-.1.3-.2.6-.2.9 0 .7.3 1.3.8 1.6.5.4 1 .6 1.71.6 0 .4-.1.7-.3 1-.2.3-.4.6-.7.8-.3.2-.6.4-.9.5-.21.14-.42.23-.6.3l-.2.1 1.4 2a.53.53 0 0 1 .2-.12l.2-.08.23-.14c.13-.1.28-.2.47-.26.3-.1.6-.3.9-.5.3-.2.6-.5.8-.7.6-.5 1-1.2 1.31-1.9.3-.8.5-1.5.5-2.4 0-.5-.1-.9-.2-1.3l-.11-.24a2.44 2.44 0 0 0-.5-.76c-.3-.3-.7-.5-1.1-.7-.4-.2-.8-.3-1.3-.3-.4 0-.8.1-1.1.2-.3.2-.6.4-.8.6-.2.2-.4.5-.5.8Zm-7.82 0c-.1.3-.2.6-.2.9 0 .7.2 1.3.8 1.6.5.4 1 .6 1.7.6 0 .4-.1.7-.3 1-.2.3-.4.6-.7.8-.3.2-.6.4-.9.5a3 3 0 0 1-.8.4l1.4 2a.53.53 0 0 1 .21-.12l.2-.08.22-.14c.14-.1.29-.2.47-.26.3-.1.6-.3.9-.5.3-.2.61-.5.81-.7.6-.5 1-1.2 1.3-1.9.3-.8.5-1.5.5-2.4 0-.5-.1-.9-.2-1.3-.2-.4-.4-.7-.6-1-.3-.3-.7-.5-1.1-.7-.4-.2-.8-.3-1.3-.3-.4 0-.8.1-1.1.2-.3.2-.61.4-.81.6-.2.2-.4.5-.5.8Z" clip-rule="evenodd"/></svg>