<svg xmlns="http://www.w3.org/2000/svg" width="258" height="30" fill="none"><path fill="#766458" fill-rule="evenodd" d="m64.74 15-.2.2a6.26 6.26 0 0 1-4.52 2.2l2.81-4.9c1.8-3.1.1-6.1-2.7-6.1-2.31 0-4.12.9-5.82 3.9l-1.51 2.6-1.2 2.1-.2.2c-2.21 2.5-4.32 4.5-5.62 4.5-.7 0-1-.5-.3-1.6L51.9 6.9h2.4l.9-1.4h-2.5L55.5.6h-3l-2.81 4.9h-2.7l-.91 1.4h2.7l-6.01 10.4c-1.3 2.2-.4 4.3 2 4.3 1.71 0 3.72-1.3 5.52-3.1 0 3.8 5.32 4.6 8.53.5h.7c1.8 0 4.62-1.1 6.12-2.9 0-.5-.5-.9-.9-1.1Zm-6.42.2h-.1a1.8 1.8 0 0 0-1.5 2.8v.1c-1.41 2.4-4.82 2-3.12-1.2l2.31-3.9 1.4-2.4c2.11-3.6 5.02-2.2 3.22.9l-2.21 3.7Zm48.05-.2-.2.2c-2.2 2.5-4.91 4.5-7.02 4.5-1.8 0-2.9-1.2-1.6-3.6l.3-.5c1.9.8 5.62.4 7.82-3.5l.4-.7c1.6-2.8.1-4.8-2.4-4.8-2.41 0-4.32 1.3-5.62 3.5l-2.91 5-.2.2c-2.21 2.5-4.32 4.5-5.62 4.5-.7 0-1-.5-.3-1.6l4.31-7.6c1.3-2.3.1-3.9-1.6-3.9-1.3 0-2.71.7-4.22 2.3L92.33.7h-3.01L80.99 15l-.2.2c-2.2 2.5-4.31 4.5-5.62 4.5-.7 0-1-.5-.3-1.6L81.3 6.9h2.41l.9-1.4h-2.5L84.9.6h-3l-2.81 4.9h-2.71l-.9 1.4h2.7l-6.02 10.4c-1.3 2.2-.4 4.3 2.01 4.3 1.2 0 2.5-.6 3.81-1.6l-.8 1.3h3l4.52-7.9c4.62-5.8 6.63-5 5.42-2.8l-3.91 6.8c-1.3 2.2-.4 4.3 2 4.3 1.81 0 3.82-1.4 5.62-3.2.1 1.9 1.71 3.2 4.12 3.2 3.4 0 6.82-2.6 9.23-5.5.1-.6-.4-1-.8-1.2Zm-5.71-4.2c1.7-3 4.81-2.5 3 .6l-.4.7c-1.4 2.4-3.4 2.4-4.51 2l1.9-3.3Zm114.97 4.4.2-.2c.5.1 1 .6 1.1 1.1-2.2 2.6-5.21 5-8.32 5.4h-.1c-.3.1-.5.1-.8.1-2.81 0-3.32-2.4-3.32-2.4l1.91-1s.4 1.1 1.4 1.1c1.93 0 2.27-2.45 2.63-5 .19-1.31.38-2.65.78-3.7l-1.17 1.53c-.91 1.2-1.98 2.61-3.14 3.97-2.5 2.9-5.32 5.5-7.82 5.5-1.91 0-2.91-1.3-2.61-2.9-1.4 1.4-3.31 2.9-4.92 2.9-1.7 0-2.4-1.4-1.6-3.5-1.1.6-2.41.9-3.31.9h-.7c-3.22 4.1-8.63 3.3-8.53-.6-2.01 1.8-4.52 3.2-6.93 3.2-2.5 0-4.01-1.3-4.11-3.2-2.5 2.4-4.92 3.8-7.32 4.6l-2.31 3.9c-2.2 3.7-6.62 3.1-6.62.2 0-2.2 2.6-3.9 6.62-5.1l.7-1.2c-1.1.6-2.1 1-2.9 1-1.72 0-2.62-1-2.62-2.4-1.6 1.4-3.3 2.4-4.81 2.4-2.41 0-3.31-2.1-2.01-4.3l3.21-5.5c.3-.6.2-1.2-.2-1.7l-.4-.5c-2.4 3.2-3.61 4.7-5.02 6.4a9.01 9.01 0 0 1-6.12 2.9h-.7c-3.21 4.1-8.53 3.3-8.53-.5-2.5 2.3-4.81 3.8-7.22 4.5l-2.3 3.9c-2.22 3.7-6.63 3.1-6.63.2 0-2.2 2.6-3.9 6.62-5.1l.8-1.4c-1.1.6-2.1 1-2.9 1-2.41 0-3.32-2.1-2.01-4.3l4.21-7.3c1.2-2.2 3.51-3.5 5.12-3.5 1.8 0 3.1 1.7 3.1 2.9h1.81L121.13 21c2.41-1 4.52-2.8 7.03-5.7l.2-.2 1.2-2.1 1.5-2.6c1.71-3 3.52-3.9 5.82-3.9 2.81 0 4.52 3 2.71 6.1l-2.8 4.9c1.5 0 3.1-.7 4.5-2.2l.2-.2c2.02-2.3 3.82-4.8 5.13-6.7l-.3-.3c-1-1.4-.9-3.1.8-4.6l1.6 1.7c-.6.5-.6 1.2-.2 1.7l1.7 2c.91 1.2 1.41 2.3.4 4.1l-3 5.2c-.7 1.1-.4 1.6.3 1.6 1.3 0 3.41-2 5.62-4.5l.2-.2 2.9-5c1.21-2.2 3.52-3.5 5.13-3.5 1.8 0 3.1 1.7 3.1 2.9h1.81L159.95 21c2.4-1 4.51-2.8 7.02-5.7l.2-.2 2.91-5c1.3-2.2 3.21-3.5 5.62-3.5 2.5 0 4.01 2 2.4 4.8l-.4.7c-2.2 3.9-5.91 4.3-7.82 3.5l-.3.5c-1.3 2.4-.2 3.6 1.6 3.6 2.11 0 4.82-2 7.03-4.5l.2-.2 1.2-2.1 1.5-2.6c1.71-3 3.52-3.9 5.83-3.9 2.8 0 4.51 3 2.7 6.1l-2.8 4.9c1.5 0 3.1-.7 4.51-2.2l.2-.2 4.72-8.1h3l-5.81 10.2-.04.06-.05.09c-.4.7-.97 1.67-.31 1.95.6.2 2.3-.9 4.61-3L203 6.9h3l-6.41 11.2c-.7 1.1-.4 1.6.3 1.6 1.3 0 3.41-2 5.62-4.5l.2-.2c2.6-2.96 5.1-6.52 6.42-8.38l.01-.02.29-.4 2.2 1.2c-1.14 2.35-1.49 4.84-1.8 7.08-.2 1.49-.4 2.86-.8 4.02a22 22 0 0 0 3.61-3.3Zm-39.83-3.8c1.8-3.1-1.3-3.6-3-.6l-1.92 3.3c1.1.4 3.12.4 4.52-2l.4-.7Zm-62 15.1c0 .9 1 1 1.6-.1l1.4-2.5c-2.3.9-3 1.8-3 2.6Zm2.7-8.4c-.7 1.1-.4 1.6.3 1.6 1.21 0 3.12-1.4 4.92-4.3l2.31-4c1.5-2.7-1.7-3.4-3.3-.6l-4.22 7.3Zm18.67-2.9h.1l2.2-3.7c1.81-3.1-1.1-4.5-3.2-.9l-1.4 2.4-2.32 3.9c-1.7 3.2 1.7 3.6 3.11 1.2V18a1.8 1.8 0 0 1 1.5-2.8Zm17.36 11.3c0 .9 1 1 1.6-.1l1.4-2.5c-2.3.9-3 1.8-3 2.6Zm2.7-8.4c-.7 1.1-.4 1.6.3 1.6 1.2 0 3.12-1.4 4.92-4.3l2.3-4c1.51-2.7-1.7-3.4-3.3-.6l-4.22 7.3Zm29.8-2.9h.1l2.2-3.7c1.81-3.1-1.1-4.5-3.2-.9l-1.4 2.4-2.31 3.9c-1.71 3.2 1.7 3.6 3.1 1.2V18a1.8 1.8 0 0 1 1.5-2.8Zm-155.5-3.4h-29v2h29v-2Zm198.74 0h29v2h-29v-2Z" clip-rule="evenodd"/></svg>