<svg xmlns="http://www.w3.org/2000/svg" width="108" height="19" fill="none"><path fill="#766458" d="m14.38 9.8-.12.13a3.83 3.83 0 0 1-2.76 1.34l1.72-3c1.1-1.89.06-3.72-1.66-3.72-1.41 0-2.51.55-3.56 2.38l-.92 1.59-.73 1.28-.13.13c-1.35 1.53-2.64 2.75-3.43 2.75-.43 0-.62-.3-.19-.98l3.93-6.85H8L8.55 4H7.02l1.72-3H6.9L5.18 4H3.52l-.55.85h1.66L.94 11.21c-.8 1.35-.24 2.63 1.23 2.63 1.05 0 2.27-.8 3.38-1.9 0 2.33 3.25 2.82 5.21.31h.43c1.1 0 2.83-.67 3.75-1.77 0-.3-.3-.55-.55-.68Zm-3.92.13h-.06a1.1 1.1 0 0 0-.92 1.7v.07c-.86 1.47-2.95 1.22-1.9-.73l1.4-2.39.86-1.47c1.3-2.2 3.07-1.34 1.97.55l-1.35 2.27ZM39.85 9.8l-.12.13c-1.35 1.53-3 2.75-4.3 2.75-1.1 0-1.77-.74-.98-2.2l.19-.3c1.16.48 3.43.24 4.78-2.15l.25-.43c.98-1.7.06-2.93-1.47-2.93-1.48 0-2.64.8-3.44 2.14l-1.78 3.06-.12.12c-1.35 1.53-2.64 2.75-3.44 2.75-.43 0-.61-.3-.18-.98l2.64-4.65c.8-1.4.06-2.38-.99-2.38-.8 0-1.65.43-2.57 1.4l2.94-5.07h-1.84l-5.1 8.74-.12.13c-1.35 1.53-2.63 2.75-3.43 2.75-.43 0-.62-.3-.19-.98l3.93-6.85h1.47l.56-.85H25l1.72-3h-1.84l-1.72 3H21.5l-.55.85h1.66l-3.68 6.36c-.8 1.35-.25 2.63 1.22 2.63.74 0 1.54-.37 2.34-.98l-.5.8h1.85l2.76-4.83c2.82-3.55 4.05-3.06 3.31-1.72l-2.4 4.16c-.79 1.35-.24 2.63 1.24 2.63 1.1 0 2.33-.85 3.43-1.96.06 1.17 1.05 1.96 2.52 1.96 2.09 0 4.17-1.59 5.64-3.36.07-.37-.24-.61-.49-.74Zm-3.5-2.56C37.4 5.4 39.3 5.7 38.2 7.6l-.25.43C37.1 9.5 35.86 9.5 35.2 9.25l1.17-2.01ZM106.81 9.8l-.12.13c-.68.8-1.48 1.46-2.21 2.01.61-1.77.43-4.4 1.6-6.78l-1.36-.74c-.73 1.04-2.39 3.43-4.1 5.38l-.13.13c-1.35 1.53-2.64 2.75-3.44 2.75-.43 0-.61-.3-.18-.98l3.92-6.85h-1.84l-3.25 5.69c-1.41 1.28-2.45 1.96-2.82 1.83-.43-.18 0-.85.24-1.28l3.56-6.24h-1.84L91.96 9.8l-.12.13a3.83 3.83 0 0 1-2.77 1.34l1.72-3c1.1-1.89.06-3.72-1.66-3.72-1.4 0-2.51.55-3.55 2.38l-.93 1.59-.73 1.28-.12.13c-1.35 1.53-3.01 2.75-4.3 2.75-1.1 0-1.78-.74-.98-2.2l.18-.3c1.17.48 3.44.24 4.79-2.15l.24-.43c.99-1.7.07-2.93-1.47-2.93-1.47 0-2.64.8-3.44 2.14l-1.78 3.06-.12.12c-1.53 1.77-2.82 2.87-4.3 3.48l4.12-7.03h-1.1c0-.73-.8-1.77-1.9-1.77-1 0-2.4.8-3.14 2.14l-1.78 3.06-.12.12c-1.35 1.53-2.64 2.75-3.44 2.75-.43 0-.61-.3-.18-.98l1.84-3.18c.61-1.1.3-1.77-.25-2.5l-1.04-1.23c-.25-.3-.25-.73.12-1.04l-.98-1.04c-1.04.92-1.1 1.96-.49 2.82l.18.18c-.8 1.16-1.9 2.69-3.13 4.1l-.12.12a3.83 3.83 0 0 1-2.76 1.34l1.72-3c1.1-1.89.06-3.72-1.66-3.72-1.41 0-2.52.55-3.56 2.38l-.92 1.6-.74 1.28-.12.12c-1.53 1.77-2.82 2.87-4.3 3.48L53 6.44h-1.1c0-.73-.8-1.77-1.91-1.77-.98 0-2.4.8-3.13 2.14l-2.58 4.46c-.8 1.35-.24 2.63 1.23 2.63.5 0 1.1-.24 1.78-.61l-.5.86c-2.45.73-4.04 1.77-4.04 3.11 0 1.78 2.7 2.14 4.05-.12l1.41-2.38A11.4 11.4 0 0 0 52.62 12c0 2.32 3.25 2.8 5.22.3h.43c1.1 0 2.82-.67 3.74-1.77.86-1.04 1.6-1.96 3.07-3.92l.24.31c.25.3.31.67.13 1.04l-1.97 3.36c-.8 1.35-.24 2.63 1.23 2.63.92 0 1.96-.6 2.94-1.47 0 .86.56 1.47 1.6 1.47.5 0 1.1-.24 1.78-.6l-.43.72c-2.45.74-4.05 1.78-4.05 3.12 0 1.78 2.7 2.14 4.05-.12l1.41-2.38a11.8 11.8 0 0 0 4.48-2.82c.06 1.17.98 1.96 2.52 1.96 1.47 0 3-.86 4.23-1.96-.06 2.39 3.26 2.88 5.22.37h.43a4.6 4.6 0 0 0 2.02-.55c-.49 1.28-.06 2.14.99 2.14.98 0 2.14-.92 3-1.77-.18.98.43 1.77 1.6 1.77 1.53 0 3.25-1.59 4.79-3.36 1.04-1.23 1.96-2.51 2.63-3.37-.73 1.9-.3 5.32-2.08 5.32-.62 0-.86-.67-.86-.67l-1.17.61s.31 1.47 2.03 1.47c.18 0 .3 0 .49-.06h.06c1.9-.25 3.75-1.71 5.1-3.3a.94.94 0 0 0-.68-.68ZM80.48 7.24c1.04-1.84 2.95-1.53 1.84.36l-.24.43c-.86 1.47-2.09 1.47-2.76 1.22l1.16-2.01Zm-35.1 9.54c-.37.67-.98.6-.98.06 0-.5.42-1.04 1.84-1.6l-.86 1.54Zm.86-4.1c-.43 0-.62-.3-.19-.98l2.58-4.46c.98-1.72 2.95-1.29 2.03.36l-1.42 2.45c-1.1 1.77-2.27 2.63-3 2.63Zm11.29-2.75h-.06a1.1 1.1 0 0 0-.92 1.7v.07c-.86 1.47-2.95 1.22-1.9-.73l1.4-2.39.87-1.47c1.28-2.2 3.06-1.34 1.96.55l-1.35 2.27Zm11.54 6.85c-.37.67-.99.6-.99.06 0-.5.43-1.04 1.85-1.6l-.86 1.54Zm.86-4.1c-.43 0-.62-.3-.19-.98l2.58-4.46c.98-1.72 2.94-1.29 2.02.36l-1.4 2.45c-1.11 1.77-2.28 2.63-3.01 2.63Zm18.1-2.75h-.06a1.1 1.1 0 0 0-.92 1.7v.07c-.86 1.47-2.95 1.22-1.9-.73l1.4-2.39.87-1.47c1.29-2.2 3.06-1.34 1.96.55l-1.35 2.27Z"/></svg>