<svg xmlns="http://www.w3.org/2000/svg" width="282" height="49" fill="none"><path fill="#fff" d="M27.19 13.37a12.52 12.52 0 0 0-7.92-3.06c-2.2 0-5.1 1.29-5.1 3.86 0 2.69 3.26 3.73 5.28 4.34l3.07.92c6.39 1.9 11.36 5.07 11.36 12.47 0 4.53-1.1 9.23-4.73 12.3-3.62 3.05-8.4 4.27-13 4.27A28.64 28.64 0 0 1 0 43.27l4.97-9.47c3 2.63 6.5 4.7 10.62 4.7 2.82 0 5.77-1.4 5.77-4.58 0-3.36-4.67-4.47-7.24-5.2-7.5-2.2-12.4-4.1-12.4-12.96C1.72 6.46 8.35.4 17.55.4c4.6 0 10.31 1.47 14.36 3.79l-4.72 9.17ZM56.22 11.66v7.64h13.44v10.1H56.22v7.88h14.23v10.1H44.31V1.62h26.14v10.1l-14.23-.07ZM79.3 1.63h16.93c12.77 0 23.32 10.03 23.32 22.87 0 12.84-10.62 22.87-23.32 22.87H79.29V1.63Zm11.96 35.65h2.7c7.12 0 13.2-3.91 13.2-12.78 0-8.2-5.4-12.78-13.08-12.78h-2.82v25.56ZM175.95 23.65c0 14.8-10.68 25.25-25.4 25.25-14.74 0-25.41-10.46-25.41-25.25 0-13.82 12.2-23.55 25.4-23.55s25.41 9.73 25.41 23.55Zm-38.42.06c0 7.88 5.83 13.63 12.95 13.63 7.12 0 12.95-5.75 12.95-13.63 0-6.3-5.83-12.11-12.95-12.11-7.06 0-12.95 5.8-12.95 12.1ZM182.27 1.63h11.97l21.85 28h.12v-28h11.97v45.74H216.2L194.36 19.3h-.12v28.07h-11.97V1.63ZM249.84 39.42l-3.19 7.95h-12.64l17.67-45.74h13.01L282 47.37h-12.7l-3.01-7.95h-16.45Zm8.35-23.66h-.13l-4.9 14.55h9.94l-4.91-14.55Z"/></svg>