<svg width="25" height="24" viewBox="0 0 25 24" fill="none" xmlns="http://www.w3.org/2000/svg">
<g clip-path="url(#clip0_75421_19)">
<path fill-rule="evenodd" clip-rule="evenodd" d="M23.6331 5.948C23.7991 5.402 23.6331 5 22.8381 5H20.2131C19.5451 5 19.2371 5.347 19.0701 5.73C19.0701 5.73 17.7351 8.926 15.8441 11.002C15.2321 11.604 14.9541 11.795 14.6201 11.795C14.4531 11.795 14.2021 11.604 14.2021 11.057V5.948C14.2021 5.292 14.0181 5 13.4621 5H9.33411C8.91711 5 8.66611 5.304 8.66611 5.593C8.66611 6.214 9.61211 6.358 9.70911 8.106V11.904C9.70911 12.737 9.5561 12.888 9.22211 12.888C8.3321 12.888 6.16711 9.677 4.88211 6.003C4.63311 5.288 4.38111 5 3.71011 5H1.08311C0.333105 5 0.183105 5.347 0.183105 5.73C0.183105 6.412 1.07311 9.8 4.32811 14.281C6.49811 17.341 9.55311 19 12.3361 19C14.0051 19 14.2111 18.632 14.2111 17.997V15.684C14.2111 14.947 14.3691 14.8 14.8981 14.8C15.2881 14.8 15.9551 14.992 17.5131 16.467C19.2931 18.216 19.5861 19 20.5881 19H23.2131C23.9631 19 24.3391 18.632 24.1231 17.904C23.8851 17.18 23.0351 16.129 21.9081 14.882C21.2961 14.172 20.3781 13.407 20.0991 13.024C19.7101 12.533 19.8211 12.314 20.0991 11.877C20.0991 11.877 23.2991 7.451 23.6321 5.948H23.6331Z" fill="white"/>
</g>
<defs>
<clipPath id="clip0_75421_19">
<rect width="24" height="24" fill="white" transform="translate(0.183105)"/>
</clipPath>
</defs>
</svg>
