<svg xmlns="http://www.w3.org/2000/svg" width="116" height="28" fill="none"><path fill="#81B3D3" d="M17.03 0h4.73l-.74 27.46h-8.9L10.9 16.14 9.67 27.46H.71L.04 0H4.7l.37 22.75h.49L8.56 0h4.67l3 22.75h.5L17.03 0ZM36.55 22.75v4.77H23.72V0h12.83v4.7H28.4v6.61h6.5v4.71h-6.5v6.67h8.16v.06ZM49.68 22.75v4.77H38.45V0h4.67v22.75h6.56ZM59.63 17.37l4.72-1.1v8.31a2.92 2.92 0 0 1-2.88 2.88H54.4a2.92 2.92 0 0 1-2.88-2.88V2.88A2.88 2.88 0 0 1 54.4 0h7.06a2.92 2.92 0 0 1 2.88 2.87v5.57l-4.72 1.1v-4.9h-3.38V22.7h3.38v-5.32ZM77.12 0A2.92 2.92 0 0 1 80 2.87v21.65a2.92 2.92 0 0 1-2.88 2.87h-7.06a2.92 2.92 0 0 1-2.89-2.87V2.87A2.88 2.88 0 0 1 70.06 0h7.06Zm-1.84 4.7H71.9v18.05h3.38V4.7ZM95.34 0h4.67v27.46h-4.67V13.94l-1.9 6.97h-4.6L87 13.94v13.52h-4.67V0H87l4.17 13.27L95.34 0ZM115.17 22.75v4.77h-12.83V0h12.83v4.7H107v6.61h6.51v4.71h-6.5v6.67h8.16v.06Z"/></svg>